<?xml version="1.0" encoding="UTF-8"?>
<svg id="Layer_1" xmlns="http://www.w3.org/2000/svg" version="1.1" viewBox="0 0 577.11 248.95">
  <!-- Generator: Adobe Illustrator 30.2.1, SVG Export Plug-In . SVG Version: 2.1.1 Build 1)  -->
  <defs>
    <style>
      .st0 {
        fill: #8d6e97;
      }
    </style>
  </defs>
  <path class="st0" d="M193.59,55.43c-51.41-26.41-116.01-10.77-140.88,43.54-9.13,20.01-11.07,43.16-6.26,64.63,2.34,10.92,6.47,21.49,11.9,31.49-6.93-9.04-12.18-19.45-15.69-30.48-8.86-27.94-4.95-59.8,11.49-84.27,30.47-46.3,94.72-56.45,139.44-24.92h0Z"/>
  <g>
    <path class="st0" d="M158.02,126.08c1,0,1.9.27,2.7.8.8.53,1.43,1.37,1.9,2.5l20.6,44.7c.6,1.33.67,2.52.2,3.55s-1.27,1.82-2.4,2.35c-1.47.67-2.73.83-3.8.5s-1.97-1.17-2.7-2.5l-18.8-42.7h5.1l-19.4,42.7c-.6,1.27-1.48,2.08-2.65,2.45s-2.45.22-3.85-.45c-1.27-.6-2.15-1.4-2.65-2.4s-.42-2.17.25-3.5l20.7-44.7c1-2.2,2.6-3.3,4.8-3.3h0Z"/>
    <path class="st0" d="M195.02,204.68c-1.2,0-2.42-.17-3.65-.5s-2.45-.83-3.65-1.5c-1.47-.87-2.43-1.93-2.9-3.2s-.27-2.5.6-3.7c.8-1.13,1.77-1.83,2.9-2.1,1.13-.27,2.33-.03,3.6.7.73.4,1.42.7,2.05.9s1.28.3,1.95.3c2.13,0,4.18-1.1,6.15-3.3s3.92-5.47,5.85-9.8l23.9-54c.6-1.33,1.52-2.23,2.75-2.7,1.23-.47,2.48-.4,3.75.2,1.13.47,1.87,1.32,2.2,2.55.33,1.23.17,2.55-.5,3.95l-24.1,54c-2.4,5.4-5.45,9.78-9.15,13.15s-7.62,5.05-11.75,5.05h0ZM217.82,178.48c-1.27.53-2.45.58-3.55.15-1.1-.43-1.98-1.28-2.65-2.55l-22.9-43.5c-.67-1.27-.75-2.48-.25-3.65s1.38-2.02,2.65-2.55c1.27-.53,2.45-.58,3.55-.15s1.98,1.28,2.65,2.55l22,43.1c.67,1.27.9,2.55.7,3.85s-.93,2.22-2.2,2.75h0Z"/>
    <path class="st0" d="M256.12,180.68c-1.47,0-2.68-.48-3.65-1.45s-1.45-2.18-1.45-3.65v-44.5c0-1.53.48-2.77,1.45-3.7.97-.93,2.18-1.4,3.65-1.4,2.13,0,3.93,1.03,5.4,3.1l20.7,29.9,20.7-29.9c1.47-2.07,3.27-3.1,5.4-3.1,1.53,0,2.77.47,3.7,1.4.93.93,1.4,2.17,1.4,3.7v44.5c0,1.47-.47,2.68-1.4,3.65s-2.17,1.45-3.7,1.45-2.68-.48-3.65-1.45-1.45-2.18-1.45-3.65v-36.4l2.6.8-18.4,26c-1.67,2.33-3.47,3.48-5.4,3.45s-3.7-1.18-5.3-3.45l-18.1-26,2.6-.8v36.4c0,1.47-.47,2.68-1.4,3.65s-2.17,1.45-3.7,1.45h0Z"/>
    <path class="st0" d="M356.22,181.08c-5.4,0-10.17-1.18-14.3-3.55-4.13-2.37-7.38-5.63-9.75-9.8s-3.55-8.95-3.55-14.35,1.18-10.28,3.55-14.45,5.62-7.43,9.75-9.8c4.13-2.37,8.9-3.55,14.3-3.55s10.07,1.18,14.2,3.55c4.13,2.37,7.38,5.63,9.75,9.8s3.55,8.98,3.55,14.45-1.17,10.18-3.5,14.35-5.57,7.43-9.7,9.8c-4.13,2.37-8.9,3.55-14.3,3.55ZM356.22,172.08c3.47,0,6.53-.8,9.2-2.4,2.67-1.6,4.75-3.8,6.25-6.6s2.25-6.03,2.25-9.7-.75-6.92-2.25-9.75-3.58-5.05-6.25-6.65c-2.67-1.6-5.73-2.4-9.2-2.4s-6.53.8-9.2,2.4c-2.67,1.6-4.77,3.82-6.3,6.65-1.53,2.83-2.3,6.08-2.3,9.75s.77,6.9,2.3,9.7,3.63,5,6.3,6.6c2.67,1.6,5.73,2.4,9.2,2.4Z"/>
    <path class="st0" d="M404.02,204.08c-1.47,0-2.68-.48-3.65-1.45s-1.45-2.19-1.45-3.65v-45.6c.07-5.27,1.3-10,3.7-14.2,2.4-4.2,5.67-7.52,9.8-9.95,4.13-2.43,8.8-3.65,14-3.65s9.97,1.22,14.1,3.65c4.13,2.43,7.42,5.75,9.85,9.95s3.65,8.93,3.65,14.2-1.12,9.98-3.35,14.15-5.28,7.47-9.15,9.9-8.23,3.65-13.1,3.65c-3.93,0-7.55-.82-10.85-2.45-3.3-1.63-6.12-3.85-8.45-6.65v27c0,1.47-.47,2.68-1.4,3.65-.93.96-2.17,1.45-3.7,1.45h0ZM426.42,172.08c3.4,0,6.43-.82,9.1-2.45,2.67-1.63,4.78-3.87,6.35-6.7s2.35-6.02,2.35-9.55-.78-6.82-2.35-9.65c-1.57-2.83-3.68-5.07-6.35-6.7-2.67-1.63-5.7-2.45-9.1-2.45s-6.35.82-9.05,2.45c-2.7,1.63-4.82,3.87-6.35,6.7s-2.3,6.05-2.3,9.65.77,6.72,2.3,9.55,3.65,5.07,6.35,6.7c2.7,1.63,5.72,2.45,9.05,2.45Z"/>
    <path class="st0" d="M492.21,181.18c-4.6,0-8.72-.98-12.35-2.95s-6.5-4.85-8.6-8.65c-2.1-3.8-3.15-8.47-3.15-14v-24.6c0-1.47.48-2.68,1.45-3.65.97-.97,2.18-1.45,3.65-1.45s2.68.48,3.65,1.45c.96.97,1.45,2.18,1.45,3.65v24.6c0,3.73.7,6.82,2.1,9.25s3.3,4.23,5.7,5.4c2.4,1.17,5.1,1.75,8.1,1.75s5.42-.57,7.65-1.7c2.23-1.13,4.02-2.67,5.35-4.6,1.33-1.93,2-4.1,2-6.5h6.3c0,4.13-1.02,7.87-3.05,11.2-2.03,3.33-4.8,5.97-8.3,7.9s-7.48,2.9-11.95,2.9h0ZM514.31,180.68c-1.47,0-2.68-.48-3.65-1.45s-1.45-2.18-1.45-3.65v-44.6c0-1.53.48-2.77,1.45-3.7.97-.93,2.18-1.4,3.65-1.4s2.77.47,3.7,1.4c.93.93,1.4,2.17,1.4,3.7v44.6c0,1.47-.47,2.68-1.4,3.65-.93.97-2.17,1.45-3.7,1.45h0Z"/>
    <path class="st0" d="M572.01,180.68c-1.4,0-2.57-.48-3.5-1.45s-1.4-2.18-1.4-3.65v-13.2h-14.1v-1.3c-3.53,0-6.67-.7-9.4-2.1-2.73-1.4-4.87-3.33-6.4-5.8s-2.3-5.33-2.3-8.6c0-3.53.85-6.7,2.55-9.5s4.03-5.02,7-6.65c2.97-1.63,6.38-2.45,10.25-2.45h17.3c1.53,0,2.77.47,3.7,1.4s1.4,2.17,1.4,3.7v44.6c-.07,1.47-.55,2.67-1.45,3.6-.9.93-2.12,1.4-3.65,1.4h0ZM536.51,179.48c-1.07-.93-1.57-1.97-1.5-3.1s.47-2.17,1.2-3.1l12.2-15.9h13.3l-17.1,21.3c-1.13,1.47-2.53,2.17-4.2,2.1-1.67-.07-2.97-.5-3.9-1.3ZM554.71,153.98h12.4v-18.5h-12.4c-2.67,0-5,.85-7,2.55s-3,3.88-3,6.55,1,5.07,3,6.8,4.33,2.6,7,2.6h0Z"/>
  </g>
</svg>